STARTFONT 2.1
FONT --Micro-Regular-R-Normal--6-60-72-72-C-40-ISO10646-1
SIZE 6 72 72
FONTBOUNDINGBOX 4 6 0 0
STARTPROPERTIES 19
PIXEL_SIZE 6
RESOLUTION_X 72
RESOLUTION_Y 72
POINT_SIZE 60
FACE_NAME "Micro 4x6"
FOUNDRY ""
FAMILY_NAME "Micro"
WEIGHT_NAME "Regular"
RELATIVE_WEIGHT 50
SLANT "R"
SPACING "C"
SETWIDTH_NAME "Normal"
RELATIVE_SETWIDTH 50
ADD_STYLE_NAME ""
AVERAGE_WIDTH 40
STRIKEOUT_ASCENT 2
STRIKEOUT_DESCENT -1
CHARSET_REGISTRY "ISO10646"
CHARSET_ENCODING "1"
ENDPROPERTIES
CHARS 96
STARTCHAR space
ENCODING 32
SWIDTH 667 0
DWIDTH 4 0
BBX 4 6 0 0
BITMAP 
00
00
00
00
00
00
ENDCHAR
STARTCHAR exclam
ENCODING 33
SWIDTH 667 0
DWIDTH 4 0
BBX 4 6 0 0
BITMAP 
40
40
40
00
40
00
ENDCHAR
STARTCHAR quotedbl
ENCODING 34
SWIDTH 667 0
DWIDTH 4 0
BBX 4 6 0 0
BITMAP 
A0
A0
00
00
00
00
ENDCHAR
STARTCHAR numbersign
ENCODING 35
SWIDTH 667 0
DWIDTH 4 0
BBX 4 6 0 0
BITMAP 
A0
E0
A0
E0
A0
00
ENDCHAR
STARTCHAR dollar
ENCODING 36
SWIDTH 667 0
DWIDTH 4 0
BBX 4 6 0 0
BITMAP 
60
C0
E0
60
C0
00
ENDCHAR
STARTCHAR percent
ENCODING 37
SWIDTH 667 0
DWIDTH 4 0
BBX 4 6 0 0
BITMAP 
A0
20
40
80
A0
00
ENDCHAR
STARTCHAR ampersand
ENCODING 38
SWIDTH 667 0
DWIDTH 4 0
BBX 4 6 0 0
BITMAP 
40
A0
50
A0
50
00
ENDCHAR
STARTCHAR quotesingle
ENCODING 39
SWIDTH 667 0
DWIDTH 4 0
BBX 4 6 0 0
BITMAP 
20
40
00
00
00
00
ENDCHAR
STARTCHAR parenleft
ENCODING 40
SWIDTH 667 0
DWIDTH 4 0
BBX 4 6 0 0
BITMAP 
20
40
40
40
20
00
ENDCHAR
STARTCHAR parenright
ENCODING 41
SWIDTH 667 0
DWIDTH 4 0
BBX 4 6 0 0
BITMAP 
40
20
20
20
40
00
ENDCHAR
STARTCHAR asterisk
ENCODING 42
SWIDTH 667 0
DWIDTH 4 0
BBX 4 6 0 0
BITMAP 
A0
40
E0
40
A0
00
ENDCHAR
STARTCHAR plus
ENCODING 43
SWIDTH 667 0
DWIDTH 4 0
BBX 4 6 0 0
BITMAP 
40
40
E0
40
40
00
ENDCHAR
STARTCHAR comma
ENCODING 44
SWIDTH 667 0
DWIDTH 4 0
BBX 4 6 0 0
BITMAP 
00
00
00
00
20
40
ENDCHAR
STARTCHAR hyphen
ENCODING 45
SWIDTH 667 0
DWIDTH 4 0
BBX 4 6 0 0
BITMAP 
00
00
E0
00
00
00
ENDCHAR
STARTCHAR period
ENCODING 46
SWIDTH 667 0
DWIDTH 4 0
BBX 4 6 0 0
BITMAP 
00
00
00
00
40
00
ENDCHAR
STARTCHAR slash
ENCODING 47
SWIDTH 667 0
DWIDTH 4 0
BBX 4 6 0 0
BITMAP 
20
20
40
80
80
00
ENDCHAR
STARTCHAR zero
ENCODING 48
SWIDTH 667 0
DWIDTH 4 0
BBX 4 6 0 0
BITMAP 
40
A0
A0
A0
40
00
ENDCHAR
STARTCHAR one
ENCODING 49
SWIDTH 667 0
DWIDTH 4 0
BBX 4 6 0 0
BITMAP 
40
C0
40
40
E0
00
ENDCHAR
STARTCHAR two
ENCODING 50
SWIDTH 667 0
DWIDTH 4 0
BBX 4 6 0 0
BITMAP 
C0
20
40
80
E0
00
ENDCHAR
STARTCHAR three
ENCODING 51
SWIDTH 667 0
DWIDTH 4 0
BBX 4 6 0 0
BITMAP 
C0
20
40
20
C0
00
ENDCHAR
STARTCHAR four
ENCODING 52
SWIDTH 667 0
DWIDTH 4 0
BBX 4 6 0 0
BITMAP 
80
A0
E0
20
20
00
ENDCHAR
STARTCHAR five
ENCODING 53
SWIDTH 667 0
DWIDTH 4 0
BBX 4 6 0 0
BITMAP 
E0
80
C0
20
C0
00
ENDCHAR
STARTCHAR six
ENCODING 54
SWIDTH 667 0
DWIDTH 4 0
BBX 4 6 0 0
BITMAP 
60
80
C0
A0
40
00
ENDCHAR
STARTCHAR seven
ENCODING 55
SWIDTH 667 0
DWIDTH 4 0
BBX 4 6 0 0
BITMAP 
E0
20
40
40
40
00
ENDCHAR
STARTCHAR eight
ENCODING 56
SWIDTH 667 0
DWIDTH 4 0
BBX 4 6 0 0
BITMAP 
40
A0
40
A0
40
00
ENDCHAR
STARTCHAR nine
ENCODING 57
SWIDTH 667 0
DWIDTH 4 0
BBX 4 6 0 0
BITMAP 
40
A0
60
20
C0
00
ENDCHAR
STARTCHAR colon
ENCODING 58
SWIDTH 667 0
DWIDTH 4 0
BBX 4 6 0 0
BITMAP 
00
00
40
00
40
00
ENDCHAR
STARTCHAR semicolon
ENCODING 59
SWIDTH 667 0
DWIDTH 4 0
BBX 4 6 0 0
BITMAP 
00
00
40
00
40
80
ENDCHAR
STARTCHAR less
ENCODING 60
SWIDTH 667 0
DWIDTH 4 0
BBX 4 6 0 0
BITMAP 
20
40
80
40
20
00
ENDCHAR
STARTCHAR equal
ENCODING 61
SWIDTH 667 0
DWIDTH 4 0
BBX 4 6 0 0
BITMAP 
00
E0
00
E0
00
00
ENDCHAR
STARTCHAR greater
ENCODING 62
SWIDTH 667 0
DWIDTH 4 0
BBX 4 6 0 0
BITMAP 
80
40
20
40
80
00
ENDCHAR
STARTCHAR question
ENCODING 63
SWIDTH 667 0
DWIDTH 4 0
BBX 4 6 0 0
BITMAP 
C0
20
40
00
40
00
ENDCHAR
STARTCHAR at
ENCODING 64
SWIDTH 667 0
DWIDTH 4 0
BBX 4 6 0 0
BITMAP 
60
A0
A0
80
60
00
ENDCHAR
STARTCHAR A
ENCODING 65
SWIDTH 667 0
DWIDTH 4 0
BBX 4 6 0 0
BITMAP 
40
A0
E0
A0
A0
00
ENDCHAR
STARTCHAR B
ENCODING 66
SWIDTH 667 0
DWIDTH 4 0
BBX 4 6 0 0
BITMAP 
C0
A0
C0
A0
C0
00
ENDCHAR
STARTCHAR C
ENCODING 67
SWIDTH 667 0
DWIDTH 4 0
BBX 4 6 0 0
BITMAP 
60
80
80
80
60
00
ENDCHAR
STARTCHAR D
ENCODING 68
SWIDTH 667 0
DWIDTH 4 0
BBX 4 6 0 0
BITMAP 
C0
A0
A0
A0
C0
00
ENDCHAR
STARTCHAR E
ENCODING 69
SWIDTH 667 0
DWIDTH 4 0
BBX 4 6 0 0
BITMAP 
E0
80
C0
80
E0
00
ENDCHAR
STARTCHAR F
ENCODING 70
SWIDTH 667 0
DWIDTH 4 0
BBX 4 6 0 0
BITMAP 
E0
80
C0
80
80
00
ENDCHAR
STARTCHAR G
ENCODING 71
SWIDTH 667 0
DWIDTH 4 0
BBX 4 6 0 0
BITMAP 
60
80
A0
A0
60
00
ENDCHAR
STARTCHAR H
ENCODING 72
SWIDTH 667 0
DWIDTH 4 0
BBX 4 6 0 0
BITMAP 
A0
A0
E0
A0
A0
00
ENDCHAR
STARTCHAR I
ENCODING 73
SWIDTH 667 0
DWIDTH 4 0
BBX 4 6 0 0
BITMAP 
E0
40
40
40
E0
00
ENDCHAR
STARTCHAR J
ENCODING 74
SWIDTH 667 0
DWIDTH 4 0
BBX 4 6 0 0
BITMAP 
E0
20
20
A0
40
00
ENDCHAR
STARTCHAR K
ENCODING 75
SWIDTH 667 0
DWIDTH 4 0
BBX 4 6 0 0
BITMAP 
A0
A0
C0
A0
A0
00
ENDCHAR
STARTCHAR L
ENCODING 76
SWIDTH 667 0
DWIDTH 4 0
BBX 4 6 0 0
BITMAP 
80
80
80
80
E0
00
ENDCHAR
STARTCHAR M
ENCODING 77
SWIDTH 667 0
DWIDTH 4 0
BBX 4 6 0 0
BITMAP 
A0
E0
A0
A0
A0
00
ENDCHAR
STARTCHAR N
ENCODING 78
SWIDTH 667 0
DWIDTH 4 0
BBX 4 6 0 0
BITMAP 
C0
A0
A0
A0
A0
00
ENDCHAR
STARTCHAR O
ENCODING 79
SWIDTH 667 0
DWIDTH 4 0
BBX 4 6 0 0
BITMAP 
40
A0
A0
A0
40
00
ENDCHAR
STARTCHAR P
ENCODING 80
SWIDTH 667 0
DWIDTH 4 0
BBX 4 6 0 0
BITMAP 
C0
A0
C0
80
80
00
ENDCHAR
STARTCHAR Q
ENCODING 81
SWIDTH 667 0
DWIDTH 4 0
BBX 4 6 0 0
BITMAP 
40
A0
A0
C0
20
00
ENDCHAR
STARTCHAR R
ENCODING 82
SWIDTH 667 0
DWIDTH 4 0
BBX 4 6 0 0
BITMAP 
C0
A0
C0
A0
A0
00
ENDCHAR
STARTCHAR S
ENCODING 83
SWIDTH 667 0
DWIDTH 4 0
BBX 4 6 0 0
BITMAP 
60
80
40
20
C0
00
ENDCHAR
STARTCHAR T
ENCODING 84
SWIDTH 667 0
DWIDTH 4 0
BBX 4 6 0 0
BITMAP 
E0
40
40
40
40
00
ENDCHAR
STARTCHAR U
ENCODING 85
SWIDTH 667 0
DWIDTH 4 0
BBX 4 6 0 0
BITMAP 
A0
A0
A0
A0
60
00
ENDCHAR
STARTCHAR V
ENCODING 86
SWIDTH 667 0
DWIDTH 4 0
BBX 4 6 0 0
BITMAP 
A0
A0
A0
40
40
00
ENDCHAR
STARTCHAR W
ENCODING 87
SWIDTH 667 0
DWIDTH 4 0
BBX 4 6 0 0
BITMAP 
A0
A0
A0
E0
A0
00
ENDCHAR
STARTCHAR X
ENCODING 88
SWIDTH 667 0
DWIDTH 4 0
BBX 4 6 0 0
BITMAP 
A0
A0
40
A0
A0
00
ENDCHAR
STARTCHAR Y
ENCODING 89
SWIDTH 667 0
DWIDTH 4 0
BBX 4 6 0 0
BITMAP 
A0
40
40
40
40
00
ENDCHAR
STARTCHAR Z
ENCODING 90
SWIDTH 667 0
DWIDTH 4 0
BBX 4 6 0 0
BITMAP 
E0
20
40
80
E0
00
ENDCHAR
STARTCHAR bracketleft
ENCODING 91
SWIDTH 667 0
DWIDTH 4 0
BBX 4 6 0 0
BITMAP 
C0
80
80
80
C0
00
ENDCHAR
STARTCHAR backslash
ENCODING 92
SWIDTH 667 0
DWIDTH 4 0
BBX 4 6 0 0
BITMAP 
80
80
40
20
20
00
ENDCHAR
STARTCHAR bracketright
ENCODING 93
SWIDTH 667 0
DWIDTH 4 0
BBX 4 6 0 0
BITMAP 
C0
40
40
40
C0
00
ENDCHAR
STARTCHAR asciicircum
ENCODING 94
SWIDTH 667 0
DWIDTH 4 0
BBX 4 6 0 0
BITMAP 
40
A0
00
00
00
00
ENDCHAR
STARTCHAR underscore
ENCODING 95
SWIDTH 667 0
DWIDTH 4 0
BBX 4 6 0 0
BITMAP 
00
00
00
00
00
F0
ENDCHAR
STARTCHAR grave
ENCODING 96
SWIDTH 667 0
DWIDTH 4 0
BBX 4 6 0 0
BITMAP 
40
20
00
00
00
00
ENDCHAR
STARTCHAR a
ENCODING 97
SWIDTH 667 0
DWIDTH 4 0
BBX 4 6 0 0
BITMAP 
00
60
A0
A0
60
00
ENDCHAR
STARTCHAR b
ENCODING 98
SWIDTH 667 0
DWIDTH 4 0
BBX 4 6 0 0
BITMAP 
80
C0
A0
A0
C0
00
ENDCHAR
STARTCHAR c
ENCODING 99
SWIDTH 667 0
DWIDTH 4 0
BBX 4 6 0 0
BITMAP 
00
60
80
80
60
00
ENDCHAR
STARTCHAR d
ENCODING 100
SWIDTH 667 0
DWIDTH 4 0
BBX 4 6 0 0
BITMAP 
20
60
A0
A0
60
00
ENDCHAR
STARTCHAR e
ENCODING 101
SWIDTH 667 0
DWIDTH 4 0
BBX 4 6 0 0
BITMAP 
00
40
E0
80
60
00
ENDCHAR
STARTCHAR f
ENCODING 102
SWIDTH 667 0
DWIDTH 4 0
BBX 4 6 0 0
BITMAP 
20
40
60
40
40
00
ENDCHAR
STARTCHAR g
ENCODING 103
SWIDTH 667 0
DWIDTH 4 0
BBX 4 6 0 0
BITMAP 
00
40
A0
60
20
C0
ENDCHAR
STARTCHAR h
ENCODING 104
SWIDTH 667 0
DWIDTH 4 0
BBX 4 6 0 0
BITMAP 
80
C0
A0
A0
A0
00
ENDCHAR
STARTCHAR i
ENCODING 105
SWIDTH 667 0
DWIDTH 4 0
BBX 4 6 0 0
BITMAP 
40
00
40
40
40
00
ENDCHAR
STARTCHAR j
ENCODING 106
SWIDTH 667 0
DWIDTH 4 0
BBX 4 6 0 0
BITMAP 
40
00
40
40
40
80
ENDCHAR
STARTCHAR k
ENCODING 107
SWIDTH 667 0
DWIDTH 4 0
BBX 4 6 0 0
BITMAP 
00
80
A0
C0
A0
00
ENDCHAR
STARTCHAR l
ENCODING 108
SWIDTH 667 0
DWIDTH 4 0
BBX 4 6 0 0
BITMAP 
40
40
40
40
20
00
ENDCHAR
STARTCHAR m
ENCODING 109
SWIDTH 667 0
DWIDTH 4 0
BBX 4 6 0 0
BITMAP 
00
A0
E0
A0
A0
00
ENDCHAR
STARTCHAR n
ENCODING 110
SWIDTH 667 0
DWIDTH 4 0
BBX 4 6 0 0
BITMAP 
00
40
A0
A0
A0
00
ENDCHAR
STARTCHAR o
ENCODING 111
SWIDTH 667 0
DWIDTH 4 0
BBX 4 6 0 0
BITMAP 
00
40
A0
A0
40
00
ENDCHAR
STARTCHAR p
ENCODING 112
SWIDTH 667 0
DWIDTH 4 0
BBX 4 6 0 0
BITMAP 
00
C0
A0
C0
80
00
ENDCHAR
STARTCHAR q
ENCODING 113
SWIDTH 667 0
DWIDTH 4 0
BBX 4 6 0 0
BITMAP 
00
60
A0
60
20
00
ENDCHAR
STARTCHAR r
ENCODING 114
SWIDTH 667 0
DWIDTH 4 0
BBX 4 6 0 0
BITMAP 
00
A0
C0
80
80
00
ENDCHAR
STARTCHAR s
ENCODING 115
SWIDTH 667 0
DWIDTH 4 0
BBX 4 6 0 0
BITMAP 
00
60
C0
20
C0
00
ENDCHAR
STARTCHAR t
ENCODING 116
SWIDTH 667 0
DWIDTH 4 0
BBX 4 6 0 0
BITMAP 
40
60
40
40
20
00
ENDCHAR
STARTCHAR u
ENCODING 117
SWIDTH 667 0
DWIDTH 4 0
BBX 4 6 0 0
BITMAP 
00
A0
A0
A0
60
00
ENDCHAR
STARTCHAR v
ENCODING 118
SWIDTH 667 0
DWIDTH 4 0
BBX 4 6 0 0
BITMAP 
00
A0
A0
40
40
00
ENDCHAR
STARTCHAR w
ENCODING 119
SWIDTH 667 0
DWIDTH 4 0
BBX 4 6 0 0
BITMAP 
00
A0
A0
E0
A0
00
ENDCHAR
STARTCHAR x
ENCODING 120
SWIDTH 667 0
DWIDTH 4 0
BBX 4 6 0 0
BITMAP 
00
A0
40
40
A0
00
ENDCHAR
STARTCHAR y
ENCODING 121
SWIDTH 667 0
DWIDTH 4 0
BBX 4 6 0 0
BITMAP 
00
A0
40
40
40
00
ENDCHAR
STARTCHAR z
ENCODING 122
SWIDTH 667 0
DWIDTH 4 0
BBX 4 6 0 0
BITMAP 
00
E0
40
80
E0
00
ENDCHAR
STARTCHAR braceleft
ENCODING 123
SWIDTH 667 0
DWIDTH 4 0
BBX 4 6 0 0
BITMAP 
60
40
80
40
60
00
ENDCHAR
STARTCHAR bar
ENCODING 124
SWIDTH 667 0
DWIDTH 4 0
BBX 4 6 0 0
BITMAP 
40
40
40
40
40
00
ENDCHAR
STARTCHAR braceright
ENCODING 125
SWIDTH 667 0
DWIDTH 4 0
BBX 4 6 0 0
BITMAP 
C0
40
20
40
C0
00
ENDCHAR
STARTCHAR asciitilde
ENCODING 126
SWIDTH 667 0
DWIDTH 4 0
BBX 4 6 0 0
BITMAP 
60
C0
00
00
00
00
ENDCHAR
STARTCHAR uni007F
ENCODING 127
SWIDTH 667 0
DWIDTH 4 0
BBX 4 6 0 0
BITMAP 
00
00
00
00
00
00
ENDCHAR
ENDFONT
